<?xml version="1.0" encoding="utf-8"?>
<!-- Generator: Adobe Illustrator 24.0.3, SVG Export Plug-In . SVG Version: 6.00 Build 0)  -->
<svg version="1.1" id="Layer_1" xmlns="http://www.w3.org/2000/svg" xmlns:xlink="http://www.w3.org/1999/xlink" x="0px" y="0px"
	 viewBox="0 0 171 86.2" style="enable-background:new 0 0 171 86.2;" xml:space="preserve">
<style type="text/css">
	.st0{fill-rule:evenodd;clip-rule:evenodd;fill:#231F20;}
	.st1{fill-rule:evenodd;clip-rule:evenodd;fill:#43BEA9;}
</style>
<path class="st0" d="M12.8,39.9c3.2,0,5.5,3.5,5.5,6.6V72c0,4.4-2.1,6.7-5.5,6.7S7.2,76.6,7.2,72V46.5C7.2,43.4,9.5,39.9,12.8,39.9z
	 M25.5,85.2V0.9C25.5,0.2,25,0,21.9,0s-3.5,0-3.5,0.8v31.8c0,1.7-0.8,2.3-1.5,2c-2.1-1-3-1.4-4.1-1.4C5.3,33.1,0,38.8,0,46.8v26
	c0,7.5,4,13.3,12.8,13.3c4.3,0,4.5-3,5.2-3c1,0,0.8,1.8,0.8,2.4c0,0.9,1.1,0.6,3.1,0.6C24.1,86.1,25.5,86.2,25.5,85.2L25.5,85.2z"/>
<path class="st0" d="M52.4,53.5c0,1.5-1.1,1.5-5.8,1.5c-4.4,0-5.3,0-5.3-1.5v-7c0-3.2,2.3-6.6,5.6-6.6s5.5,3.2,5.5,6.6
	C52.4,46.5,52.4,53.5,52.4,53.5z M41.3,63.8c0-1.3,0.7-2,1.2-2h15.1c2.2,0,2.1-1,2.1-1.8V46.5c0-7.7-5.5-13.4-12.8-13.4
	s-12.8,5.2-12.8,13.4v25.8c0,8.8,5.5,13.8,12.8,13.8s12.8-4,12.8-13.8c0-0.9-0.5-1-3.4-1c-3.3,0-3.8,0.2-3.8,0.7
	c0,4.4-2.1,6.7-5.5,6.7s-5.6-2.3-5.6-6.7C41.3,72,41.3,63.8,41.3,63.8z"/>
<path class="st1" d="M89.8,11.2H75.2V1.5C75.2,0,74.4,0,71.4,0c-2.6,0-3.3,0-3.3,1.3v20.2H53.4c-0.8,0-0.8,0.4-0.8,3.5
	s0,3.5,0.8,3.5h14.8v46.3c0,6.4,4.4,11.2,12.8,11.2c0.7,0,0.6-1,0.6-3.4c0-2.2,0-3.4-0.6-3.4c-3.3,0-5.6-1.7-5.6-4.4V18.3h14.5
	c0.8,0,0.8-0.4,0.8-3.5S90.6,11.2,89.8,11.2z"/>
<path class="st0" d="M98.2,39.9c3.2,0,5.5,3.5,5.5,6.6V72c0,4.4-2.1,6.7-5.5,6.7s-5.6-2.1-5.6-6.7V46.5
	C92.6,43.4,94.9,39.9,98.2,39.9z M111,46.5c0-7.7-5.5-13.4-12.8-13.4s-12.8,5.2-12.8,13.4v25.8c0,8.9,5.5,13.8,12.8,13.8
	s12.8-4,12.8-13.8V46.5z"/>
<path class="st0" d="M126.9,34.3v37.9c0,2.8,0.7,7.1,3.8,7.1c4.6,0,7.4-2.9,7.4-6.6V34.5c0-1,0.6-1.1,3.5-1.1s3.6,0.3,3.6,1.1v50.8
	c0,0.8-0.4,0.8-3.2,0.8c-2.4,0-3.5-0.1-3.5-0.8c0-0.9-0.1-2.2-0.1-3c0-1.4,0.1-2.2-0.6-1c-1.5,2.6-4.2,4.8-7.1,4.8
	c-7.3,0-11-4.2-11-14V34.4c0-1,1-1.1,3.2-1.1C126,33.3,126.9,33.5,126.9,34.3L126.9,34.3z"/>
<path class="st0" d="M162.1,47.3V85c0,1.1-1,1.1-3.9,1.1c-2.4,0-3.3-0.1-3.3-1.1V34.2c0-0.8,0.6-0.8,3.5-0.8c2.5,0,3.2-0.1,3.2,0.8
	s0.1,2.2,0.1,3c0,1.4-0.1,2.1,0.4,0.9c1.4-3.1,5.8-5,8.1-5c0.8,0,0.7,1.2,0.7,3.8c0,2.2-0.1,3.5-0.7,3.5
	C167.3,40.5,162.1,43.2,162.1,47.3L162.1,47.3z"/>
</svg>
